<?xml version="1.0" encoding="UTF-8" standalone="no"?>
<!-- Created with Inkscape (http://www.inkscape.org/) -->

<svg
   xmlns:dc="http://purl.org/dc/elements/1.1/"
   xmlns:cc="http://creativecommons.org/ns#"
   xmlns:rdf="http://www.w3.org/1999/02/22-rdf-syntax-ns#"
   xmlns:svg="http://www.w3.org/2000/svg"
   xmlns="http://www.w3.org/2000/svg"
   xmlns:sodipodi="http://sodipodi.sourceforge.net/DTD/sodipodi-0.dtd"
   xmlns:inkscape="http://www.inkscape.org/namespaces/inkscape"
   width="40.600925mm"
   height="62.869659mm"
   viewBox="0 0 40.600924 62.869667"
   version="1.1"
   id="svg2404"
   sodipodi:docname="jr_moustache.svg"
   inkscape:version="0.92.4 (5da689c313, 2019-01-14)">
  <defs
     id="defs2398" />
  <sodipodi:namedview
     id="base"
     pagecolor="#ffffff"
     bordercolor="#666666"
     borderopacity="1.0"
     inkscape:pageopacity="0.0"
     inkscape:pageshadow="2"
     inkscape:zoom="0.7"
     inkscape:cx="-98.917627"
     inkscape:cy="197.23283"
     inkscape:document-units="mm"
     inkscape:current-layer="layer1"
     showgrid="false"
     inkscape:window-width="2880"
     inkscape:window-height="1526"
     inkscape:window-x="-11"
     inkscape:window-y="-11"
     inkscape:window-maximized="1" />
  <metadata
     id="metadata2401">
    <rdf:RDF>
      <cc:Work
         rdf:about="">
        <dc:format>image/svg+xml</dc:format>
        <dc:type
           rdf:resource="http://purl.org/dc/dcmitype/StillImage" />
        <dc:title></dc:title>
      </cc:Work>
    </rdf:RDF>
  </metadata>
  <g
     inkscape:label="Layer 1"
     inkscape:groupmode="layer"
     id="layer1"
     transform="translate(-133.2887,-171.16751)">
    <g
       style="display:inline"
       id="g12126"
       transform="translate(244.72922,-143.94045)">
      <path
         inkscape:export-ydpi="300"
         inkscape:export-xdpi="300"
         inkscape:export-filename="C:\Users\Atlee\Documents\Website\JustenRussell.com\icons\jrlogoface.png"
         inkscape:connector-curvature="0"
         id="rect1110-2-4-9"
         d="m -111.19052,315.35812 v 5.00176 h 12.549621 v 14.87247 c -5e-5,3.05118 0,7.7839 0,11.30887 0,1.99215 -1.604021,3.59617 -3.596161,3.59617 h -0.34882 c -1.60832,0 -2.96255,-1.04587 -3.42511,-2.49701 h -5.08703 c 0.61279,4.23325 4.2371,7.46517 8.64547,7.46517 4.840971,0 8.738481,-3.89698 8.738481,-8.73796 v -8.63823 -2.49701 -11.13575 -8.73848 h -8.738481 z"
         style="display:inline;opacity:1;fill:#000000;fill-opacity:0.99607843;stroke:#000000;stroke-width:0.5;stroke-linecap:round;stroke-miterlimit:4;stroke-dasharray:none;stroke-dashoffset:0;stroke-opacity:0.96862745" />
      <path
         inkscape:export-ydpi="300"
         inkscape:export-xdpi="300"
         inkscape:export-filename="C:\Users\Atlee\Documents\Website\JustenRussell.com\icons\jrlogoface.png"
         inkscape:connector-curvature="0"
         id="rect1290-4-6"
         d="m -91.216669,315.35796 v 19.87423 2.49701 2.64687 9.76116 4.96816 h 4.9935 v -4.96816 h 3.015321 l 4.96869,4.96816 h 6.795969 l -5.71232,-5.71179 c 3.52317,-1.45071 5.912821,-4.88151 5.912821,-9.01753 v -15.08074 -9.93737 h -14.980481 z m 4.9935,4.96817 h 4.918559 4.968172 v 14.90606 5.0183 c 7.9e-5,2.69956 -2.203601,4.87469 -4.893242,4.91495 v 0.004 h -4.993489 v -4.91855 -5.0183 -9.98751 z"
         style="display:inline;opacity:1;fill:#000000;fill-opacity:0.99607843;stroke:#000000;stroke-width:0.5;stroke-linecap:round;stroke-miterlimit:4;stroke-dasharray:none;stroke-dashoffset:0;stroke-opacity:0.96862745" />
      <rect
         inkscape:export-ydpi="300"
         inkscape:export-xdpi="300"
         inkscape:export-filename="C:\Users\Atlee\Documents\Website\JustenRussell.com\icons\jrlogoface.png"
         ry="2.497"
         y="330.26312"
         x="-83.777077"
         height="4.994"
         width="5.0937061"
         id="rect944-5-2-8-6-4"
         style="display:inline;opacity:0.98999999;fill:#000000;fill-opacity:0.99607843;stroke:#000000;stroke-width:0.5;stroke-linecap:square;stroke-miterlimit:4;stroke-dasharray:none;stroke-opacity:1" />
      <rect
         inkscape:export-ydpi="300"
         inkscape:export-xdpi="300"
         inkscape:export-filename="C:\Users\Atlee\Documents\Website\JustenRussell.com\icons\jrlogoface.png"
         ry="2.497"
         y="330.26312"
         x="-106.19745"
         height="4.994"
         width="5.0937061"
         id="rect944-5-2-8-9-5-2"
         style="display:inline;opacity:0.98999999;fill:#000000;fill-opacity:0.99607843;stroke:#000000;stroke-width:0.5;stroke-linecap:square;stroke-miterlimit:4;stroke-dasharray:none;stroke-opacity:1" />
    </g>
    <g
       id="g12130"
       transform="translate(247.01774,-145.52795)"
       style="display:inline;fill:#000000">
      <path
         sodipodi:nodetypes="sssssss"
         inkscape:connector-curvature="0"
         id="rect944-5-2-8-9-9-7-8-3-4-6"
         d="m -98.64261,359.963 h 0.16035 c 2.224868,0 4.016,1.79113 4.016,4.016 0,2.22486 -1.791132,4.016 -4.016,4.016 h -0.16035 c -7.87089,0 -14.27161,-4.30734 -12.07201,-3.97292 8.21738,1.24932 9.28709,-4.05908 12.07201,-4.05908 z"
         style="display:inline;opacity:0.98999999;fill:#000000;fill-opacity:1;stroke:#000000;stroke-width:0.80416507;stroke-linecap:square;stroke-miterlimit:4;stroke-dasharray:none;stroke-opacity:1" />
      <path
         sodipodi:nodetypes="sssssss"
         inkscape:connector-curvature="0"
         id="rect944-5-2-8-9-9-7-8-3-4-9-8"
         d="m -88.214535,359.7193 h -0.160351 c -2.224867,0 -4.016,1.79114 -4.016,4.016 0,2.22487 1.791133,4.016 4.016,4.016 h 0.160351 c 7.870894,0 14.271614,-4.30733 12.072013,-3.97291 -8.217377,1.24932 -9.287093,-4.05909 -12.072013,-4.05909 z"
         style="display:inline;opacity:0.98999999;fill:#000000;fill-opacity:1;stroke:#000000;stroke-width:0.80416507;stroke-linecap:square;stroke-miterlimit:4;stroke-dasharray:none;stroke-opacity:1" />
    </g>
    <path
       style="display:inline;opacity:0.98999999;fill:#000000;fill-opacity:1;stroke:#000000;stroke-width:0.5;stroke-linecap:square;stroke-miterlimit:4;stroke-dasharray:none;stroke-opacity:1"
       d="m 153.53932,226.63397 h 0.0997 c 1.38334,0 2.497,1.11366 2.497,2.497 0,1.38334 -2.34548,4.6562 -2.34548,4.6562 h -0.0997 c 0,0 -2.64852,-3.27286 -2.64852,-4.6562 0,-1.38334 1.11366,-2.497 2.497,-2.497 z"
       id="rect944-5-2-8-9-9-7-8-2"
       inkscape:connector-curvature="0"
       sodipodi:nodetypes="sssccss" />
  </g>
</svg>
