<?xml version="1.0" encoding="UTF-8" standalone="no"?>
<!-- Created with Inkscape (http://www.inkscape.org/) -->

<svg
   xmlns:dc="http://purl.org/dc/elements/1.1/"
   xmlns:cc="http://creativecommons.org/ns#"
   xmlns:rdf="http://www.w3.org/1999/02/22-rdf-syntax-ns#"
   xmlns:svg="http://www.w3.org/2000/svg"
   xmlns="http://www.w3.org/2000/svg"
   xmlns:sodipodi="http://sodipodi.sourceforge.net/DTD/sodipodi-0.dtd"
   xmlns:inkscape="http://www.inkscape.org/namespaces/inkscape"
   width="43.158031mm"
   height="50.2873mm"
   viewBox="0 0 43.158031 50.2873"
   version="1.1"
   id="svg3337"
   inkscape:version="0.92.4 (5da689c313, 2019-01-14)"
   sodipodi:docname="jrbookmystery_halfopen.svg">
  <defs
     id="defs3331">
    <filter
       inkscape:collect="always"
       style="color-interpolation-filters:sRGB"
       id="filter5202-11-3-9-5-7-0-2">
      <feBlend
         inkscape:collect="always"
         mode="screen"
         in2="BackgroundImage"
         id="feBlend5204-04-9-8-7-1-3-5" />
    </filter>
    <filter
       inkscape:collect="always"
       style="color-interpolation-filters:sRGB"
       id="filter5202-20-7-0-5-4-6">
      <feBlend
         inkscape:collect="always"
         mode="screen"
         in2="BackgroundImage"
         id="feBlend5204-96-8-9-6-2-5" />
    </filter>
    <filter
       inkscape:collect="always"
       style="color-interpolation-filters:sRGB"
       id="filter5202-15-1-1-5-2-7-0">
      <feBlend
         inkscape:collect="always"
         mode="screen"
         in2="BackgroundImage"
         id="feBlend5204-02-3-3-0-3-7-7" />
    </filter>
    <filter
       inkscape:collect="always"
       style="color-interpolation-filters:sRGB"
       id="filter5202-15-8-5-4-38-3">
      <feBlend
         inkscape:collect="always"
         mode="screen"
         in2="BackgroundImage"
         id="feBlend5204-02-2-0-7-1-81" />
    </filter>
    <filter
       inkscape:collect="always"
       style="color-interpolation-filters:sRGB"
       id="filter5202-11-36-5-9-3-0">
      <feBlend
         inkscape:collect="always"
         mode="screen"
         in2="BackgroundImage"
         id="feBlend5204-04-7-8-1-7-1" />
    </filter>
    <filter
       inkscape:collect="always"
       style="color-interpolation-filters:sRGB"
       id="filter5202-20-7-0-5-4">
      <feBlend
         inkscape:collect="always"
         mode="screen"
         in2="BackgroundImage"
         id="feBlend5204-96-8-9-6-2" />
    </filter>
  </defs>
  <sodipodi:namedview
     id="base"
     pagecolor="#ffffff"
     bordercolor="#666666"
     borderopacity="1.0"
     inkscape:pageopacity="0.0"
     inkscape:pageshadow="2"
     inkscape:zoom="0.98994949"
     inkscape:cx="208.2915"
     inkscape:cy="20.560905"
     inkscape:document-units="mm"
     inkscape:current-layer="layer1"
     showgrid="false"
     inkscape:window-width="2880"
     inkscape:window-height="1526"
     inkscape:window-x="-11"
     inkscape:window-y="-11"
     inkscape:window-maximized="1" />
  <metadata
     id="metadata3334">
    <rdf:RDF>
      <cc:Work
         rdf:about="">
        <dc:format>image/svg+xml</dc:format>
        <dc:type
           rdf:resource="http://purl.org/dc/dcmitype/StillImage" />
        <dc:title></dc:title>
      </cc:Work>
    </rdf:RDF>
  </metadata>
  <g
     inkscape:label="Layer 1"
     inkscape:groupmode="layer"
     id="layer1"
     transform="translate(-70.647175,-147.12421)">
    <path
       style="display:inline;opacity:1;fill:none;fill-opacity:0.99607843;stroke:#000000;stroke-width:1;stroke-linecap:round;stroke-miterlimit:4;stroke-dasharray:none;stroke-dashoffset:0;stroke-opacity:1"
       d="m 80.808819,147.65887 c -0.365887,-0.005 -0.702408,0.39357 -0.903303,1.17151 l -6.407362,24.81089 c -0.357158,1.38298 -0.146952,3.42509 0.471289,4.57904 l 7.810892,14.57896 c 0.722958,1.56808 1.00484,1.87307 2.861326,1.87534 h 17.476969 c 1.38334,0 2.77719,-1.11367 3.12487,-2.49701 l 6.23735,-24.81709 c 0.34769,-1.38333 -0.48632,-2.497 -1.86966,-2.497 H 92.134224 c -0.723217,0 -1.447821,0.30608 -2.025713,0.79426 -0.04697,-0.98462 -0.265528,-1.9793 -0.631487,-2.66236 L 81.66613,148.41697 c -0.270481,-0.50486 -0.572733,-0.75388 -0.857311,-0.7581 z"
       id="path2552-7-2"
       inkscape:connector-curvature="0"
       sodipodi:nodetypes="scccccsccsscccs" />
    <path
       style="display:inline;opacity:1;fill:#000000;fill-opacity:0.99607843;stroke:#000000;stroke-width:1;stroke-linecap:round;stroke-miterlimit:4;stroke-dasharray:none;stroke-dashoffset:0;stroke-opacity:1"
       d="m 78.644094,147.62425 c -0.365887,-0.005 -0.702408,0.39305 -0.903306,1.17099 l -6.407359,24.81089 c -0.357159,1.38298 -0.146955,3.42561 0.471289,4.57956 l 7.810891,14.57896 c 0.516213,0.97077 1.04176,1.88284 1.554427,2.83962 1.473825,1.69573 3.97949,1.23372 5.064281,1.25108 -0.0045,-0.0171 0.0057,0.017 0,0 0.05111,0.003 0.101759,0.007 0.154512,0.007 H 103.8658 c 1.38334,0 2.77668,-1.11367 3.12435,-2.497 l 6.23735,-24.81709 c 0.33236,-1.32234 -0.41602,-2.39539 -1.69085,-2.48771 -0.013,0.0985 -0.0302,0.19798 -0.0558,0.29973 l -6.23735,24.81709 c -0.34768,1.38333 -1.74153,2.497 -3.12487,2.497 H 84.64165 c -0.061,0 -0.126172,0.0887 -0.184981,0.0845 -0.769239,-0.0611 -0.994071,0.004 -1.50794,-0.37383 -0.698791,-0.51783 -1.10059,-1.39866 -1.192691,-1.66192 L 73.94566,178.14436 c -0.618241,-1.15395 -0.828445,-3.19606 -0.471289,-4.57904 l 6.348452,-24.58352 -0.321429,-0.59996 c -0.270481,-0.50485 -0.572733,-0.75336 -0.857311,-0.75758 z"
       id="path2552-7-0-8"
       inkscape:connector-curvature="0"
       sodipodi:nodetypes="ccccccccsssccscssccccccccc" />
    <path
       style="display:inline;opacity:1;fill:none;fill-opacity:0.99607843;stroke:#000000;stroke-width:1.88976383;stroke-linecap:round;stroke-miterlimit:4;stroke-dasharray:none;stroke-dashoffset:0;stroke-opacity:1;filter:url(#filter5202-20-7-0-5-4)"
       d="M 56.453332,3.6502867 C 54.960268,1.975578 52.909118,0.94497639 50.638945,0.94497639 v 0 H -18.28179"
       id="path9215-0-6-3-2-2-8-3-2-5-2-0-6-9-9"
       inkscape:connector-curvature="0"
       sodipodi:nodetypes="cccc"
       transform="matrix(-0.26458333,0,-0.08059663,0.26458333,100.62766,182.50543)"
       inkscape:export-filename="C:\Users\Atlee\Documents\Website\JustenRussell.com\icons\jrbookopen_straight.png"
       inkscape:export-xdpi="314.36841"
       inkscape:export-ydpi="314.36841" />
    <path
       style="display:inline;opacity:1;fill:none;fill-opacity:0.99607843;stroke:#000000;stroke-width:1.88976383;stroke-linecap:round;stroke-miterlimit:4;stroke-dasharray:none;stroke-dashoffset:0;stroke-opacity:1;filter:url(#filter5202-11-36-5-9-3-0)"
       d="M 56.453332,3.6502867 C 54.960268,1.975578 52.909118,0.94497639 50.638945,0.94497639 v 0 l -68.920735,-1.37e-6"
       id="path9215-0-6-3-2-2-8-3-2-5-3-4-7-5-3-5"
       inkscape:connector-curvature="0"
       sodipodi:nodetypes="cccc"
       transform="matrix(-0.26458333,0,-0.08059663,0.26458333,98.790534,188.53637)"
       inkscape:export-filename="C:\Users\Atlee\Documents\Website\JustenRussell.com\icons\jrbookopen_straight.png"
       inkscape:export-xdpi="314.36841"
       inkscape:export-ydpi="314.36841" />
    <path
       style="display:inline;opacity:1;fill:none;fill-opacity:0.99607843;stroke:#000000;stroke-width:1.88976383;stroke-linecap:round;stroke-miterlimit:4;stroke-dasharray:none;stroke-dashoffset:0;stroke-opacity:1;filter:url(#filter5202-15-8-5-4-38-3)"
       d="M 56.453332,3.6502867 C 54.960268,1.975578 52.909118,0.94497639 50.638945,0.94497639 v 0 L -18.28179,1.0699764"
       id="path9215-0-6-3-2-2-8-3-2-5-8-7-2-2-64-4"
       inkscape:connector-curvature="0"
       sodipodi:nodetypes="cccc"
       transform="matrix(-0.26458333,0,-0.08059663,0.26458333,104.30191,170.44358)"
       inkscape:export-filename="C:\Users\Atlee\Documents\Website\JustenRussell.com\icons\jrbookopen_straight.png"
       inkscape:export-xdpi="314.36841"
       inkscape:export-ydpi="314.36841" />
    <path
       style="display:inline;opacity:1;fill:none;fill-opacity:0.99607843;stroke:#000000;stroke-width:1.88976383;stroke-linecap:round;stroke-miterlimit:4;stroke-dasharray:none;stroke-dashoffset:0;stroke-opacity:1;filter:url(#filter5202-15-1-1-5-2-7-0)"
       d="M 56.453332,3.6502867 C 54.960268,1.975578 52.909118,0.94497639 50.638945,0.94497639 v 0 L -18.28179,1.0699764"
       id="path9215-0-6-3-2-2-8-3-2-5-8-1-6-1-7-0-4"
       inkscape:connector-curvature="0"
       sodipodi:nodetypes="cccc"
       transform="matrix(-0.26458333,0,-0.08059663,0.26458333,102.36468,176.47449)"
       inkscape:export-filename="C:\Users\Atlee\Documents\Website\JustenRussell.com\icons\jrbookopen_straight.png"
       inkscape:export-xdpi="314.36841"
       inkscape:export-ydpi="314.36841" />
    <path
       style="display:inline;opacity:1;fill:#000000;fill-opacity:0.99215686;stroke:#000000;stroke-width:0.18426928;stroke-linecap:round;stroke-miterlimit:4;stroke-dasharray:none;stroke-dashoffset:0;stroke-opacity:0.96862745;filter:url(#filter5202-20-7-0-5-4-6)"
       d="m -35.244023,21.888236 v 1.84334 h 4.6251 v 5.48108 c -10e-5,1.12448 0,2.86867 0,4.16776 0,0.73418 -0.5912,1.32532 -1.3254,1.32532 h -0.1285 c -0.592799,0 -1.091799,-0.38544 -1.262299,-0.92024 v -0.91072 h -1.871901 l -1e-4,0.60549 v 0.30523 c 0.2259,1.56012 1.561601,2.7512 3.1862,2.7512 1.7841,0 3.2205,-1.43619 3.2205,-3.22027 v -3.18353 -0.92024 -4.10395 -3.22047 h -3.2205 z"
       id="rect1110-2-8-3-0-4-9-7-6-0"
       inkscape:connector-curvature="0"
       sodipodi:nodetypes="ccccssscccccsscccccc"
       inkscape:export-filename="C:\Users\Atlee\Documents\Website\JustenRussell.com\icons\jrbookopen_straight.png"
       inkscape:export-xdpi="314.36841"
       inkscape:export-ydpi="314.36841"
       transform="matrix(0.42019313,0.81692229,-0.26513218,0.93554455,101.18709,162.92684)" />
    <path
       style="display:inline;opacity:1;fill:#000000;fill-opacity:0.99215686;stroke:#000000;stroke-width:0.18426928;stroke-linecap:round;stroke-miterlimit:4;stroke-dasharray:none;stroke-dashoffset:0;stroke-opacity:0.96862745;filter:url(#filter5202-20-7-0-5-4-6)"
       d="m -27.845823,21.888236 v 7.32442 0.92024 0.97548 3.59736 1.83096 h 1.8403 v -1.83096 h 1.1112 l 1.8312,1.83096 h 2.5045 l -2.1052,-2.10502 c 1.2985,-0.53464 2.1791,-1.79902 2.1791,-3.3233 v -5.55784 -3.6623 h -5.5208 z m 1.8403,1.83096 h 1.8126 1.831 v 5.49346 1.84944 c 0,0.99489 -0.8121,1.79651 -1.8033,1.81134 v 0.001 h -1.8403 v -1.81267 -1.84944 -3.68078 z"
       id="rect1290-0-2-3-0-9-0-2-8"
       inkscape:connector-curvature="0"
       inkscape:export-filename="C:\Users\Atlee\Documents\Website\JustenRussell.com\icons\jrbookopen_straight.png"
       inkscape:export-xdpi="314.36841"
       inkscape:export-ydpi="314.36841"
       transform="matrix(0.42019313,0.81692229,-0.26513218,0.93554455,101.18709,162.92684)" />
    <rect
       style="display:inline;opacity:0.98999999;fill:#000000;fill-opacity:1;stroke:#000000;stroke-width:0.18426928;stroke-linecap:square;stroke-miterlimit:4;stroke-dasharray:none;stroke-opacity:1;filter:url(#filter5202-20-7-0-5-4-6)"
       id="rect944-5-2-8-1-8-7-5-3-4-6-2"
       width="1.8772271"
       height="1.8404815"
       x="-25.145493"
       y="27.381365"
       ry="0.92024076"
       inkscape:export-filename="C:\Users\Atlee\Documents\Website\JustenRussell.com\icons\jrbookopen_straight.png"
       inkscape:export-xdpi="314.36841"
       inkscape:export-ydpi="314.36841"
       transform="matrix(0.42019313,0.81692229,-0.26513218,0.93554455,101.18709,162.92684)" />
    <rect
       style="display:inline;opacity:0.98999999;fill:#000000;fill-opacity:1;stroke:#000000;stroke-width:0.18426928;stroke-linecap:square;stroke-miterlimit:4;stroke-dasharray:none;stroke-opacity:1;filter:url(#filter5202-20-7-0-5-4-6)"
       id="rect944-5-2-8-9-4-8-7-9-0-6-7-2-07"
       width="1.8772271"
       height="1.8404815"
       x="-32.960838"
       y="27.372149"
       ry="0.92024076"
       inkscape:export-filename="C:\Users\Atlee\Documents\Website\JustenRussell.com\icons\jrbookopen_straight.png"
       inkscape:export-xdpi="314.36841"
       inkscape:export-ydpi="314.36841"
       transform="matrix(0.42019313,0.81692229,-0.26513218,0.93554455,101.18709,162.92684)" />
    <path
       style="display:inline;opacity:1;fill:none;fill-opacity:0.99607843;stroke:#000000;stroke-width:1.88976383;stroke-linecap:round;stroke-miterlimit:4;stroke-dasharray:none;stroke-dashoffset:0;stroke-opacity:1;filter:url(#filter5202-11-3-9-5-7-0-2)"
       d="m 101.91543,97.020765 c -1.49307,-1.674709 -3.544216,-2.705311 -5.814389,-2.705311 v 0 l -68.920735,-10e-7"
       id="path9215-0-6-3-2-2-8-3-2-5-3-7-2-5-1-3-1"
       inkscape:connector-curvature="0"
       sodipodi:nodetypes="cccc"
       transform="matrix(0.11117609,0.21614402,-0.07014956,0.24752949,79.035129,143.45826)"
       inkscape:export-filename="C:\Users\Atlee\Documents\Website\JustenRussell.com\icons\jrbookopen_straight.png"
       inkscape:export-xdpi="314.36841"
       inkscape:export-ydpi="314.36841" />
  </g>
</svg>
